#!OML:ASF X:\für Bonn\!DataBase\2005_08_11_Bastian_Final\c3d\Bastian.ASF
:FULLY-SPECIFIED
:DEGREES
128
root -1.89337 16.721 -27.1306 141.753 -2.71194 -181.243
lowerback 14.4863 2.05701 5.42894
upperback 15.5545 -0.00584151 -2.971
thorax 8.95524 -0.726889 -6.50424
lowerneck 5.4196 1.21617 -13.6514
upperneck 6.66282 0.291069 8.3614
head 1.04405 -0.25734 4.74828
rclavicle 4.02228e-015 1.43125e-014
rhumerus -61.6727 18.6309 -97.0306
rradius 113.169
rwrist 16.374
rhand -17.6312 6.34624
rfingers 7.12502
rthumb 8.62628 -23.4575
lclavicle 4.02228e-015 1.43125e-014
lhumerus -4.90866 -38.9366 86.4732
lradius 112.861
lwrist 40.9972
lhand -9.27879 -12.4359
lfingers 7.12502
lthumb 16.6781 16.8676
rfemur 11.7784 1.76269 26.968
rtibia 41.2708
rfoot -186.845 -169.769
rtoes 6.70537
lfemur -21.1985 14.6776 -6.46199
ltibia 109.396
lfoot -1.55041 -4.50748
ltoes -28.6552
129
root -1.88254 16.732 -27.0853 142.988 -2.33473 -180.965
lowerback 13.2512 1.6079 5.31956
upperback 14.9674 -0.386758 -2.77396
thorax 8.85231 -0.832414 -6.17123
lowerneck 5.36463 1.30177 -13.5728
upperneck 6.38213 0.458208 7.95214
head 0.957121 -0.162365 4.60442
rclavicle -5.22431e-015 -4.37326e-014
rhumerus -62.36 18.3441 -96.8082
rradius 112.833
rwrist 17.2267
rhand -17.9027 6.08818
rfingers 7.12502
rthumb 8.36427 -23.7262
lclavicle -5.22431e-015 -4.37326e-014
lhumerus -5.79399 -38.8963 86.9182
lradius 113.344
lwrist 40.8536
lhand -9.33506 -12.3811
lfingers 7.12502
lthumb 16.6239 16.9269
rfemur 10.1046 1.74205 27.2369
rtibia 41.5157
rfoot -186.64 -169.4
rtoes 6.89566
lfemur -18.3532 13.8363 -6.35347
ltibia 107.966
lfoot -0.660788 -3.88586
ltoes -28.9543
130
root -1.87223 16.747 -27.0372 144.236 -1.90745 -180.691
lowerback 12.0478 1.17278 5.28725
upperback 14.3663 -0.755244 -2.5755
thorax 8.74048 -0.928533 -5.89271
lowerneck 5.31492 1.39605 -13.4869
upperneck 6.06687 0.634728 7.61417
head 0.857773 -0.0600716 4.48149
rclavicle 1.45486e-014 6.75868e-015
rhumerus -62.9063 18.1245 -96.5623
rradius 112.462
rwrist 17.8864
rhand -18.1768 5.94817
rfingers 7.12502
rthumb 8.09969 -23.8766
lclavicle 1.45486e-014 6.75868e-015
lhumerus -6.60659 -38.9352 87.2942
lradius 113.853
lwrist 40.7272
lhand -9.49201 -12.3284
lfingers 7.12502
lthumb 16.4728 16.9922
rfemur 8.41085 1.7374 27.51
rtibia 41.7625
rfoot -186.397 -169
rtoes 7.18783
lfemur -15.5742 13.0616 -6.33166
ltibia 106.356
lfoot 0.226409 -3.41125
ltoes -29.9441
131
root -1.8628 16.7626 -26.9863 145.459 -1.50252 -180.471
lowerback 10.9024 0.719854 5.14413
upperback 13.7843 -1.17856 -2.33183
thorax 8.62507 -1.07433 -5.51195
lowerneck 5.11491 1.52293 -13.4972
upperneck 5.83442 0.866088 7.28079
head 0.801574 0.0682964 4.37599
rclavicle 3.91357e-015 -3.18055e-015
rhumerus -63.3554 18.1518 -96.2316
rradius 112.071
rwrist 18.3406
rhand -18.4961 5.99249
rfingers 7.12502
rthumb 7.79154 -23.8439
lclavicle 3.91357e-015 -3.18055e-015
lhumerus -7.31724 -38.8482 87.6557
lradius 114.416
lwrist 40.5341
lhand -9.59947 -12.1298
lfingers 7.12502
lthumb 16.3693 17.1994
rfemur 6.74501 1.75615 27.7237
rtibia 42.0037
rfoot -186.151 -168.553
rtoes 7.41315
lfemur -12.8434 12.3222 -6.49229
ltibia 104.567
lfoot 1.16217 -3.01626
ltoes -30.7902
132
root -1.85421 16.7738 -26.9333 146.666 -1.07633 -180.252
lowerback 9.79457 0.284856 5.04042
upperback 13.2322 -1.59945 -2.07475
thorax 8.54389 -1.22289 -5.15328
lowerneck 4.81708 1.2237 -13.5484
upperneck 5.66249 1.18521 6.98962
head 0.788067 0.523136 4.29495
rclavicle -1.32192e-014 -1.63003e-014
rhumerus -63.6555 18.2485 -95.89
rradius 111.651
rwrist 18.5318
rhand -18.8328 6.19405
rfingers 7.12502
rthumb 7.46658 -23.6542
lclavicle -1.32192e-014 -1.63003e-014
lhumerus -7.87071 -38.7574 87.9782
lradius 114.959
lwrist 40.4028
lhand -9.64619 -11.9209
lfingers 7.12502
lthumb 16.3243 17.412
rfemur 5.0735 1.77686 27.9414
rtibia 42.2605
rfoot -185.885 -168.099
rtoes 7.58903
lfemur -10.1801 11.6169 -6.74753
ltibia 102.63
lfoot 2.03907 -2.66437
ltoes -31.4911
133
root -1.84697 16.7805 -26.8786 147.857 -0.648626 -180.042
lowerback 8.72009 -0.116559 5.04122
upperback 12.7037 -1.99017 -1.8292
thorax 8.49238 -1.35197 -4.87958
lowerneck 4.4392 1.33199 -13.4644
upperneck 5.48428 1.36982 6.70316
head 0.780552 0.613651 4.1909
rclavicle 1.08089e-014 1.09332e-014
rhumerus -63.8536 18.3258 -95.5801
rradius 111.285
rwrist 18.5491
rhand -19.1828 6.42069
rfingers 7.12502
rthumb 7.12874 -23.4393
lclavicle 1.08089e-014 1.09332e-014
lhumerus -8.32847 -38.7877 88.274
lradius 115.497
lwrist 40.2122
lhand -9.61274 -11.7343
lfingers 7.12502
lthumb 16.3565 17.5959
rfemur 3.37734 1.82845 28.1605
rtibia 42.5714
rfoot -185.623 -167.644
rtoes 7.82605
lfemur -7.57392 10.9431 -7.11617
ltibia 100.544
lfoot 2.77391 -2.33672
ltoes -33.0028
134
root -1.83984 16.7818 -26.822 148.994 -0.222477 -179.852
lowerback 7.69831 -0.501149 5.00528
upperback 12.2204 -2.38768 -1.55199
thorax 8.47568 -1.49804 -4.56303
lowerneck 3.97458 1.43261 -13.3224
upperneck 5.32133 1.55562 6.41742
head 0.792097 0.705805 4.07908
rclavicle -1.07468e-015 -8.19987e-015
rhumerus -63.8865 18.5268 -95.1961
rradius 110.998
rwrist 18.3403
rhand -19.4107 6.70126
rfingers 7.12502
rthumb 6.90868 -23.166
lclavicle -1.07468e-015 -8.19987e-015
lhumerus -8.65398 -38.7987 88.5472
lradius 116.003
lwrist 40.0222
lhand -9.54276 -11.5805
lfingers 7.12502
lthumb 16.4239 17.7442
rfemur 1.70005 1.90921 28.3699
rtibia 42.9498
rfoot -185.38 -167.189
rtoes 7.98997
lfemur -4.97868 10.3329 -7.55874
ltibia 98.3119
lfoot 3.37422 -2.05342
ltoes -34.922
135
root -1.83299 16.7762 -26.763 150.096 0.162182 -179.668
lowerback 6.73982 -3.0713 4.70252
upperback 11.7235 -2.32364 -1.64187
thorax 8.33761 0.0582243 -4.2671
lowerneck 3.36629 1.53594 -13.0125
upperneck 5.16315 1.79235 5.74253
head 0.907505 0.815676 4.24856
rclavicle 1.32502e-014 9.64106e-015
rhumerus -63.8149 18.8738 -94.8915
rradius 110.783
rwrist 17.9696
rhand -19.563 6.91127
rfingers 7.12502
rthumb 6.76166 -22.9608
lclavicle 1.32502e-014 9.64106e-015
lhumerus -8.90202 -38.828 88.6779
lradius 116.551
lwrist 39.8816
lhand -9.46873 -11.5103
lfingers 7.12502
lthumb 16.4952 17.8085
rfemur 0.0127402 1.96788 28.5646
rtibia 43.3962
rfoot -185.164 -166.733
rtoes 8.09158
lfemur -2.4519 9.74168 -8.09939
ltibia 95.9703
lfoot 3.87397 -1.80463
ltoes -36.442
136
root -1.8265 16.7656 -26.7016 151.137 0.539773 -179.479
lowerback 5.84859 -3.2696 4.71359
upperback 11.3194 -2.80886 -1.31995
thorax 8.35676 -0.276781 -3.96245
lowerneck 2.9058 1.66174 -12.6461
upperneck 4.91838 2.01209 5.39392
head 0.891575 0.928963 4.04921
rclavicle -1.38777e-014 8.54774e-015
rhumerus -63.6189 19.193 -94.5468
rradius 110.552
rwrist 17.4517
rhand -19.5607 7.22329
rfingers 7.12502
rthumb 6.76387 -22.6487
lclavicle -1.38777e-014 8.54774e-015
lhumerus -9.09341 -38.883 88.7998
lradius 117.083
lwrist 39.664
lhand -9.35468 -11.576
lfingers 7.12502
lthumb 16.605 17.7336
rfemur -1.64222 2.15185 28.807
rtibia 43.8849
rfoot -184.945 -166.402
rtoes 8.20403
lfemur 0.0580673 9.19077 -8.66838
ltibia 93.5159
lfoot 4.27115 -1.64029
ltoes -37.1035
137
root -1.81837 16.7504 -26.6374 152.122 0.88109 -179.285
lowerback 5.06158 -3.50504 4.66095
upperback 10.9124 -3.32267 -0.974957
thorax 8.32389 -0.624513 -3.60246
lowerneck 2.52501 1.81195 -12.3124
upperneck 4.59446 2.2519 5.04423
head 0.835201 1.05299 3.85622
rclavicle 3.76448e-015 1.59028e-015
rhumerus -63.4029 19.5106 -94.1881
rradius 110.371
rwrist 16.8786
rhand -19.4177 7.52333
rfingers 7.12502
rthumb 6.9019 -22.3442
lclavicle 3.76448e-015 1.59028e-015
lhumerus -9.27777 -38.9065 88.9237
lradius 117.601
lwrist 39.4554
lhand -9.24146 -11.6816
lfingers 7.12502
lthumb 16.714 17.6189
rfemur -3.27284 2.40461 29.0818
rtibia 44.4318
rfoot -184.759 -166.179
rtoes 8.26436
lfemur 2.52602 8.68313 -9.25078
ltibia 90.9851
lfoot 4.51125 -1.54475
ltoes -37.362
